<svg xmlns="http://www.w3.org/2000/svg" shape-rendering="geometricPrecision" text-rendering="geometricPrecision" image-rendering="optimizeQuality" fill-rule="evenodd" clip-rule="evenodd" viewBox="64.76 84.25 193.44 170.44">
  <path fill-rule="nonzero" d="M 201.365 181.455 C 197.232 183.497 193.529 186.137 189.962 189.045 L 183.826 182.025 C 188.341 177.837 193.604 174.56 199.262 172.152 C 187.813 151.87 160.125 146.567 141.867 160.746 C 135.238 165.88 130.205 173.56 128.269 183.735 L 127.66 186.914 L 124.49 187.475 C 121.384 188.018 118.61 188.767 116.178 189.718 C 100.998 195.592 96.737 212.488 106.025 225.317 C 109.999 230.775 115.065 236.341 121.713 237.268 L 131.006 237.268 C 130.943 238.182 130.909 239.103 130.909 240.033 C 130.909 242.27 131.098 244.462 131.464 246.595 L 121.563 246.595 L 120.978 246.543 C 111.673 245.361 104.025 238.432 98.499 230.778 C 85.615 213.039 91.958 189.127 112.846 181.025 C 115.026 180.175 117.357 179.465 119.814 178.895 C 122.603 167.818 128.547 159.289 136.188 153.37 C 159.716 135.139 195.037 142.909 208.513 169.695 C 210.54 169.376 212.569 169.214 214.584 169.239 C 244.73 169.461 256.651 208.01 241.008 228.776 C 234.738 237.094 225.122 244.172 215.219 246.47 L 214.179 246.595 L 208.141 246.595 C 208.665 243.515 208.819 240.384 208.598 237.268 L 213.661 237.268 C 221.022 235.497 228.874 229.441 233.543 223.198 C 244.656 208.397 236.768 178.681 214.521 178.541 C 210.174 178.505 205.647 179.556 201.365 181.455 Z M 163.383 254.688 L 176.355 254.688 C 179.389 254.688 181.876 252.201 181.876 249.167 L 181.876 231.294 L 191.337 231.294 C 193.331 231.209 194.744 230.55 195.565 229.306 C 197.781 225.981 194.754 222.699 192.654 220.385 C 186.695 213.844 176.432 204.16 173.491 200.697 C 171.26 198.235 168.09 198.235 165.858 200.697 C 162.819 204.245 152.19 214.648 146.524 221.01 C 144.558 223.226 142.129 226.243 144.171 229.306 C 145.012 230.55 146.411 231.209 148.405 231.294 L 157.866 231.294 L 157.866 249.167 C 157.866 252.167 160.35 254.688 163.383 254.688 Z" style=""/>
  <path d="M 82.401 118.169 L 87.127 118.169 C 87.406 115.892 89.243 114.131 91.472 114.131 C 93.686 114.131 95.514 115.868 95.81 118.122 L 100.603 118.169 C 100.87 118.169 101.085 118.384 101.085 118.651 L 101.085 123.964 C 101.085 124.231 100.87 124.445 100.603 124.445 L 82.406 124.445 C 82.144 124.445 81.923 124.231 81.923 123.964 L 81.923 118.651 C 81.919 118.385 82.134 118.167 82.401 118.169 Z M 105.148 145.246 C 111.037 145.246 115.808 150.019 115.808 155.905 C 115.808 161.795 111.034 166.566 105.148 166.566 C 99.258 166.566 94.488 161.791 94.488 155.905 C 94.488 150.016 99.261 145.246 105.148 145.246 Z M 109.34 156.156 C 109.675 156.142 109.914 156.03 110.051 155.821 C 110.426 155.261 109.915 154.708 109.561 154.319 L 105.789 150.484 C 105.382 150.084 104.912 150.077 104.504 150.484 L 100.642 154.424 C 100.311 154.796 99.902 155.304 100.246 155.821 C 100.386 156.03 100.622 156.142 100.959 156.156 L 102.82 156.156 L 102.82 159.046 C 102.82 159.595 103.271 160.054 103.826 160.054 L 106.469 160.054 C 107.026 160.054 107.479 159.601 107.479 159.046 L 107.479 156.156 L 109.34 156.156 Z M 77.146 120.206 L 79.599 120.206 L 79.599 122.704 L 77.146 122.704 C 76.658 122.704 76.212 122.905 75.891 123.226 C 75.57 123.548 75.369 123.993 75.369 124.48 L 75.369 156.814 C 75.369 157.301 75.57 157.747 75.891 158.069 C 76.214 158.392 76.661 158.593 77.146 158.593 L 91.761 158.593 C 91.934 159.458 92.189 160.294 92.516 161.092 L 77.146 161.092 C 75.973 161.092 74.902 160.609 74.126 159.833 C 73.354 159.06 72.87 157.99 72.87 156.814 L 72.87 124.48 C 72.87 123.304 73.352 122.235 74.126 121.462 C 74.899 120.688 75.969 120.206 77.146 120.206 Z M 107.638 142.479 L 107.638 124.48 C 107.638 123.991 107.437 123.547 107.116 123.224 C 106.783 122.891 106.331 122.704 105.86 122.704 L 103.409 122.704 L 103.409 120.206 L 105.86 120.206 C 107.032 120.206 108.099 120.688 108.874 121.462 C 109.654 122.241 110.136 123.31 110.136 124.48 L 110.136 143.194 C 109.338 142.879 108.502 142.638 107.638 142.479 Z M 86.451 141.654 C 85.721 141.654 85.127 141.061 85.127 140.329 C 85.127 139.599 85.721 139.005 86.451 139.005 L 101.087 139.005 C 101.818 139.005 102.411 139.599 102.411 140.329 C 102.411 141.061 101.818 141.654 101.087 141.654 L 86.451 141.654 Z M 82.042 138.85 C 82.859 138.85 83.521 139.513 83.521 140.329 C 83.521 141.148 82.859 141.81 82.042 141.81 C 81.225 141.81 80.562 141.148 80.562 140.329 C 80.562 139.513 81.225 138.85 82.042 138.85 Z M 82.042 146.907 C 82.859 146.907 83.521 147.57 83.521 148.386 C 83.521 149.204 82.859 149.866 82.042 149.866 C 81.225 149.866 80.562 149.204 80.562 148.386 C 80.562 147.57 81.225 146.907 82.042 146.907 Z M 86.453 149.711 C 85.722 149.711 85.127 149.117 85.127 148.386 C 85.127 147.656 85.722 147.061 86.453 147.061 L 94.749 147.061 C 94.059 147.872 93.465 148.762 92.981 149.711 L 86.453 149.711 Z M 82.042 130.795 C 82.859 130.795 83.521 131.457 83.521 132.274 C 83.521 133.092 82.859 133.753 82.042 133.753 C 81.225 133.753 80.562 133.092 80.562 132.274 C 80.562 131.457 81.225 130.795 82.042 130.795 Z M 86.451 133.598 C 85.721 133.598 85.127 133.005 85.127 132.274 C 85.127 131.542 85.721 130.949 86.451 130.949 L 101.087 130.949 C 101.818 130.949 102.411 131.542 102.411 132.274 C 102.411 133.005 101.818 133.598 101.087 133.598 L 86.451 133.598 Z M 91.422 116.197 C 92.681 116.197 93.703 117.218 93.703 118.479 C 93.703 119.739 92.681 120.759 91.422 120.759 C 90.161 120.759 89.141 119.739 89.141 118.479 C 89.141 117.218 90.161 116.197 91.422 116.197 Z" style="transform-box: fill-box; transform-origin: 50% 50%; fill: rgb(84, 0, 255);" transform="matrix(0.930581, -0.366086, 0.366086, 0.930581, -0.000003, -0.000002)"/>
  <title>upload-files</title>
  <path class="cls-1" d="M 238.46 142.036 L 250.639 142.036 C 252.27 142.036 253.592 143.358 253.592 144.989 L 253.592 156.522 C 253.592 158.152 252.27 159.475 250.639 159.475 L 238.46 159.475 C 236.829 159.475 235.507 158.152 235.507 156.522 L 235.507 144.979 C 235.507 143.348 236.829 142.026 238.46 142.026 L 238.46 142.036 Z M 246.334 131.13 L 248.92 131.13 C 249.52 131.125 250.097 131.362 250.521 131.786 C 250.943 132.212 251.179 132.788 251.177 133.387 L 251.177 138.906 L 249.209 138.906 L 249.209 133.397 C 249.209 133.312 249.176 133.229 249.117 133.168 C 249.054 133.107 248.97 133.074 248.884 133.076 L 246.344 133.076 L 246.344 138.903 L 244.274 138.903 L 244.274 130.634 L 235.668 130.634 C 235.088 130.642 234.614 130.174 234.614 129.595 L 234.614 121.215 L 219.955 121.215 L 219.955 152.542 L 232.239 152.542 L 232.239 154.612 L 223.253 154.612 L 223.253 157.211 C 223.252 157.296 223.285 157.379 223.344 157.44 C 223.406 157.5 223.489 157.533 223.574 157.532 L 232.233 157.532 L 232.233 159.478 L 223.587 159.478 C 222.34 159.464 221.333 158.457 221.316 157.211 L 221.316 154.625 L 219.738 154.625 C 219.247 154.624 218.775 154.43 218.426 154.084 C 218.078 153.736 217.883 153.264 217.884 152.771 L 217.884 121.005 C 217.881 119.98 218.713 119.147 219.738 119.151 L 235.668 119.151 C 235.977 119.15 236.269 119.291 236.462 119.532 L 245.593 128.39 C 246.034 128.516 246.34 128.916 246.344 129.375 L 246.344 131.111 L 246.334 131.13 Z M 224.444 141.098 C 224.074 141.108 223.787 141.421 223.807 141.79 C 223.779 142.163 224.069 142.485 224.444 142.496 L 232.219 142.496 L 232.219 141.098 L 224.444 141.098 Z M 224.444 146.105 C 224.074 146.118 223.789 146.435 223.813 146.804 C 223.789 147.172 224.074 147.488 224.444 147.502 L 232.219 147.502 L 232.219 146.105 L 224.444 146.105 Z M 224.444 131.081 C 224.064 131.08 223.763 131.401 223.787 131.78 C 223.763 132.158 224.064 132.479 224.444 132.479 L 231.625 132.479 C 231.994 132.463 232.277 132.147 232.252 131.78 C 232.277 131.412 231.994 131.097 231.625 131.081 L 224.444 131.081 Z M 224.444 126.074 C 224.074 126.088 223.789 126.404 223.813 126.773 C 223.789 127.141 224.074 127.458 224.444 127.472 L 228.381 127.472 C 228.749 127.456 229.032 127.14 229.007 126.773 C 229.032 126.405 228.749 126.09 228.381 126.074 L 224.444 126.074 Z M 224.444 136.091 C 224.064 136.09 223.763 136.411 223.787 136.79 C 223.763 137.168 224.064 137.489 224.444 137.489 L 236.583 137.489 C 236.958 137.48 237.254 137.165 237.24 136.79 C 237.264 136.411 236.963 136.09 236.583 136.091 L 224.444 136.091 Z M 236.714 122.78 L 242.896 128.564 L 236.698 128.564 L 236.698 122.78 L 236.714 122.78 Z M 248.365 151.584 C 248.622 151.598 248.868 151.483 249.022 151.279 C 249.35 150.77 248.897 150.268 248.576 149.914 C 247.663 148.913 245.596 147.102 245.147 146.574 C 244.85 146.197 244.279 146.197 243.982 146.574 C 243.516 147.115 241.337 149.038 240.471 150.009 C 240.169 150.337 239.815 150.813 240.11 151.279 C 240.264 151.483 240.51 151.598 240.767 151.584 L 242.388 151.584 L 242.388 154.494 C 242.389 154.999 242.798 155.407 243.302 155.409 L 245.836 155.409 C 246.342 155.409 246.753 155 246.755 154.494 L 246.755 151.584 L 248.365 151.584 Z" style="fill-rule: evenodd; transform-box: fill-box; transform-origin: 50% 50%; fill: rgb(90, 0, 255);" transform="matrix(0.965926, 0.258819, -0.258819, 0.965926, 0, 0.000002)"/>
  <path fill-rule="nonzero" d="M 156.572 122.498 C 155.484 122.498 155.484 120.843 156.572 120.843 L 166.076 120.843 C 166.056 121.118 166.047 121.394 166.046 121.67 C 166.046 121.949 166.056 122.225 166.076 122.498 L 156.572 122.498 Z M 173.171 86.497 L 173.171 89.188 C 173.171 95.262 174.587 95.615 179.561 95.615 L 181.599 95.615 L 173.171 86.497 Z M 181.897 97.22 L 179.911 97.22 C 174.266 97.22 171.566 96.841 171.566 89.238 L 171.566 85.857 L 153.838 85.857 C 151.832 85.857 150.187 87.502 150.187 89.509 L 150.187 114.003 L 168.86 114.003 C 168.43 114.511 168.041 115.054 167.702 115.626 L 150.187 115.626 L 150.187 123.935 C 150.187 125.936 151.838 127.587 153.838 127.587 L 167.626 127.587 C 167.952 128.151 168.324 128.688 168.737 129.191 L 153.838 129.191 C 150.953 129.191 148.582 126.821 148.582 123.935 L 148.582 89.509 C 148.582 86.616 150.946 84.252 153.838 84.252 L 172.926 84.252 C 173.177 84.252 173.414 84.371 173.566 84.572 L 183.286 95.088 C 183.489 95.306 183.503 95.519 183.503 95.783 L 183.503 111.218 C 182.986 110.941 182.45 110.702 181.897 110.505 L 181.897 97.22 Z" style="fill: rgb(38, 38, 38);"/>
  <path fill="#262626" fill-rule="nonzero" d="M 160.022 107.041 L 158.433 107.041 L 158.433 108.887 L 155.988 108.887 L 155.988 101.247 L 159.838 101.247 C 161.591 101.247 162.466 102.189 162.466 104.071 C 162.466 105.106 162.238 105.872 161.783 106.369 C 161.611 106.557 161.375 106.716 161.074 106.846 C 160.772 106.976 160.421 107.041 160.022 107.041 Z M 158.433 103.203 L 158.433 105.085 L 158.995 105.085 C 159.288 105.085 159.503 105.055 159.637 104.994 C 159.772 104.933 159.838 104.792 159.838 104.572 L 159.838 103.717 C 159.838 103.497 159.772 103.356 159.637 103.295 C 159.503 103.233 159.288 103.203 158.995 103.203 L 158.433 103.203 Z M 163.2 108.887 L 163.2 101.247 L 166.624 101.247 C 168.001 101.247 168.946 101.541 169.458 102.128 C 169.972 102.715 170.23 103.694 170.23 105.067 C 170.23 106.44 169.972 107.42 169.458 108.007 C 168.946 108.594 168.001 108.887 166.624 108.887 L 163.2 108.887 Z M 166.659 103.203 L 165.646 103.203 L 165.646 106.931 L 166.659 106.931 C 166.994 106.931 167.236 106.893 167.387 106.816 C 167.537 106.737 167.613 106.561 167.613 106.284 L 167.613 103.85 C 167.613 103.574 167.537 103.397 167.387 103.32 C 167.236 103.242 166.994 103.203 166.659 103.203 Z M 175.607 106.052 L 173.53 106.052 L 173.53 108.887 L 171.085 108.887 L 171.085 101.247 L 176.097 101.247 L 175.791 103.203 L 173.53 103.203 L 173.53 104.23 L 175.607 104.23 L 175.607 106.052 Z" style=""/>
  <path d="M 177.902 111.768 C 183.37 111.768 187.805 116.202 187.805 121.67 C 187.805 127.139 183.37 131.573 177.902 131.573 C 172.434 131.573 168 127.139 168 121.67 C 168 116.202 172.434 111.768 177.902 111.768 Z" style="fill: rgb(84, 0, 255);"/>
  <path fill-rule="nonzero" d="M 179.492 121.22 L 181.096 121.78 C 182.158 122.187 183.249 121.436 182.427 120.502 C 181.425 119.351 179.904 117.769 178.799 116.715 C 178.112 116.028 177.714 116.022 177.024 116.71 C 175.798 117.911 174.598 119.247 173.4 120.49 C 172.544 121.421 173.612 122.207 174.721 121.78 L 176.309 121.225 C 176.193 122.73 176.047 124.17 175.959 125.674 C 175.959 125.951 176.191 126.172 176.461 126.194 C 177.415 126.194 178.389 126.215 179.34 126.194 C 179.61 126.172 179.842 125.951 179.842 125.674 L 179.492 121.22 Z" style="fill: rgb(255, 255, 255);"/>
  <text style="fill: rgb(51, 51, 51); font-family: Arial, sans-serif; font-size: 11.6px; font-weight: 700; white-space: pre; transform-box: fill-box; transform-origin: 43.9558% 50%;" transform="matrix(0.931898, -0.36272, 0.36272, 0.931898, 57.673489, 100.855612)" x="35.677" y="72.258">.txt</text>
  <text style="fill: rgb(51, 51, 51); font-family: Arial, sans-serif; font-size: 10.7px; font-weight: 700; white-space: pre;" x="153.486" y="139.721">.pdf</text>
  <text style="fill: rgb(51, 51, 51); font-family: Arial, sans-serif; font-size: 8.4px; font-weight: 700; white-space: pre; transform-box: fill-box; transform-origin: 50% 50%;" x="157.245" y="185.187" transform="matrix(0.965926, 0.258819, -0.258819, 0.965926, 58.637403, -17.701833)">.docx</text>
</svg>